<?xml version="1.0" encoding="UTF-8" standalone="no"?>
<!-- Created with Inkscape (http://www.inkscape.org/) -->

<svg
   xmlns:dc="http://purl.org/dc/elements/1.1/"
   xmlns:cc="http://creativecommons.org/ns#"
   xmlns:rdf="http://www.w3.org/1999/02/22-rdf-syntax-ns#"
   xmlns:svg="http://www.w3.org/2000/svg"
   xmlns="http://www.w3.org/2000/svg"
   version="1.1"
   width="240"
   height="140"
   id="svg2">
  <metadata
     id="metadata8">
    <rdf:RDF>
      <cc:Work
         rdf:about="">
        <dc:format>image/svg+xml</dc:format>
        <dc:type
           rdf:resource="http://purl.org/dc/dcmitype/StillImage" />
        <dc:title></dc:title>
      </cc:Work>
    </rdf:RDF>
  </metadata>
  <defs
     id="defs6">
    <filter
       color-interpolation-filters="sRGB"
       id="filter3881-1">
      <feGaussianBlur
         id="feGaussianBlur3883-7"
         stdDeviation="2.1535281" />
    </filter>
  </defs>
  <g
     transform="translate(-113.76672,-291.01997)"
     id="g3007">
    <path
       d="m 125.93605,-8.3778946 c -2.98106,0.0605 -6.3659,0.31448 -10.1875,0.46875 -65.71312,2.6526704 -121.9906703,13.6477404 -162.125,28.1250006 -21.03198,7.58666 -29.68583,17.48396 -25.8125,30.875 3.51185,12.14132 14.23093,13.66083 26.125,14.625 4.05245,0.3285 6.3125,0.625 6.3125,0.625 1.23117,1.34001 9.38585,11.18243 16.8125,17.125003 3.88905,3.1119 6.67509,6.06016 6.5,6.90625 -0.16855,0.81444 -1.46095,2.17623 -2.875,3.03125 -2.32887,1.40817 -3.09829,1.41183 -8.0625,-0.0312 -3.57192,-1.03839 -6.9987,-2.99847 -9.84375,-5.625 -2.4008,-2.21641 -4.92254,-4.03125 -5.59375,-4.03125 -0.70959,0 -1.72414,2.71935 -2.4375,6.5 -1.04493,5.5379 -0.99279,6.83545 0.28125,8.75 2.03168,3.053071 15.00881,9.508021 21.625,10.750001 16.9311997,3.17829 26.1066097,-1.54667 26.8749997,-13.937501 0.55977,-9.02674 -2.49282,-11.04357 -5.28125,-14.218753 -1.43998,-1.63971 -3.51007,-3.51069 -4.84375,-4.34375 l 2.65625,0 c 1.75867,-0.0126 6.67569,-1.07513 7.90625,-1.53125 0,0 0.0392,0.10959 0.28125,4.46875 0.43386,7.812403 1.62982,18.917583 3.6875,21.812504 1.72261,2.42352 2.6115303,2.75 7.4062503,2.75 l 5.4375,0 -0.65625,-5.375001 c -0.8214,-6.98886 1.12958,-15.33064 4.40625,-18.843753 2.68505,-2.87879 8.51376,-5.34693 10.1875,-4.3125 1.31089,0.81018 5.03125,13.003423 5.03125,16.468753 0,1.59596 1.02746,3.67722 2.46875,5.03125 2.43153,2.2843 4.85488,2.405861 9.78125,0.5 1.41575,-0.54771 1.746,-0.1238 1.75,2.187501 0.008,4.80097 3.68893,7.9792 13.5,11.65625 6.02922,2.25966 9.41849,3.04197 10.25,2.40625 0.68267,-0.52193 6.07262,-7.06334 11.96875,-14.562501 10.01117,-12.73298 17.13888,-24.545123 17.40625,-28.812503 0.20631,-3.29283 1.7533,6.02764 1.8125,10.90625 0.0317,2.612503 0.48707,4.750003 1,4.750003 0.51294,0 1.22971,0.94677 1.59375,2.09375 0.64089,2.01927 1.07426,2.06307 13.8125,1.4375 19.04731,-0.9354 18.65625,-0.79673 18.65625,-5.96875 0,-2.600583 -0.59242,-4.809283 -1.5,-5.562503 -0.825,-0.68469 -1.5,-1.86735 -1.5,-2.625 0,-0.75766 -0.9,-1.375 -2,-1.375 -1.1,0 -2,0.41026 -2,0.90625 0,1.47004 -11.52714,2.42952 -13.90625,1.15625 -1.15321,-0.61717 -2.09375,-1.55296 -2.09375,-2.0625 0,-0.50954 2.025,-2.98467 4.5,-5.53125 2.475,-2.54659 4.5,-5.23643 4.5,-5.96875 0,-0.73233 -1.18156,-2.75332 -2.625,-4.46875 -1.44344,-1.71543 -2.2183,-3.35897 -1.90625,-3.8125 0.45857,-0.66648 2.48318,-2.41846 5.96875,-1.875 l 7.5625,1.15625 -0.53125,-6.0625 c -0.28698,-3.3151 -1.39521,-8.1962 -1.71875,-8.96875 0,0 4.51534,-2.55173 7.09375,-5.21875 -4.52138,0.88288 -6.09372,1.97286 -8.09375,2.40625 -3.75087,-0.0327 -10.76077,2.0119 -24.5,2.9375 -7.16531,0.48273 -10.25,1.06364 -10.25,1.9375 0,0.68753 0.675,1.52716 1.5,1.84375 0.825,0.31658 1.69632,3.18558 1.6875,3.1875 l -23.875,5.15625 c 0,0 -0.0385,-1.05435 -1.09375,-2 -1.84604,-1.65423 -18.125,-6.5 -18.125,-6.5 0,0 -1.10372,2.79088 -1.65625,5.5625 -0.56629,2.84065 -0.9375,5.59375 -0.9375,5.59375 l -13.75,1.125 -3.15625,-8.75 c -4.34811,-11.98201 -4.92527,-12.46323 -12.28125,-10.4375 -3.19794,0.88067 -9.54779,2.17057 -14.125,2.875 -7.9814903,1.22833 -8.3150503,1.3855 -7.8750003,3.6875 0.52006,2.72051 -1.45592,15.73716 -2.375,16.65625 0,0 -2.19904,-2.67751 -4.93749996,-5.75 -3.56959004,-4.00499 -6.39365004,-5.79491 -9.65625004,-7.1875 -6.0360497,-2.5764 -14.5400897,-2.04376 -19.2812497,0.375 l -3.84375,1.96875 -0.6875,-5.59375 c -0.57957,-4.63873 -1.37788,-6.31043 -4.75,-9.96875 -2.23101,-2.42036 -5.16572,-4.68852 -6.53125,-5.03125 -1.80449,-0.4529 -2.12481,-0.82628 -1.125,-1.375 36.1728097,-13.50958 89.12534,-25.9618702 147.125,-26.8750002 -1.87947,1.95565 -1.48617,7.98867 0.75,11.6562502 1.08986,1.7875 2.4107,3.25 2.9375,3.25 0.52679,0 4.98133,-1.35 9.90625,-3 4.92492,-1.65 10.01863,-2.9303002 11.3125,-2.8750002 1.51464,0.0647 0.91912,0.40138 -1.65625,1 -5.77486,1.3423202 -15.63233,4.8532202 -18.25,6.5000002 -2.89763,1.8229 -3.00368,7.00861 -0.25,12.40625 2.26201,4.43391 4.55216,5.96875 8.78125,5.96875 5.64372,0 20.99703,-6.42136 28.09375,-11.75 5.91694,-4.4428 6.56689,-14.8253402 5.21875,-19.2187502 -1.33733,-4.35819 -4.18635,-7.84483 -10.03125,-10.53125 -3.04376,-1.3989704 -6.90657,-1.6945804 -11.875,-1.5937504 z M -53.0327,31.309606 c 3.55255,0.0283 7.1874,1.17594 10.0625,3.4375 3.14587,2.47455 5.41173,9.8439 3.78125,15.71875 -1.40267,5.05401 -3.0785,6.4648 -6.90625,8.25 -6.94751,3.2402 -13.20728,0.25291 -18.03125,-4.3125 -6.157,-5.82698 -3.55685,-15.33367 1.5625,-19.8125 2.53575,-2.21849 5.9787,-3.30952 9.53125,-3.28125 z m 157.96875,20.53125 c 0.56649,2.17188 0.62173,4.65877 1.03125,6.875 l -3.34375,-1.375 c -5.90019,-2.41472 -7.875,-2.82673 -7.875,-1.625 0,3.14957 -7.59004,16.8863 -12.96875,23.46875 -3.35417,4.104833 -6.47886,7.685303 -6.9375,7.968753 -0.8788,0.54313 1.4429,-7.873533 4.0625,-21.875003 0.97571,-5.21506 1.625,-7.90625 1.625,-7.90625 3.87809,-1.03651 24.40625,-5.53125 24.40625,-5.53125 z m -47.65625,8.375 -0.78125,9 c -0.43743,4.95 -1.13295,12.15 -1.53125,16.000003 l -0.71875,7 -1.40625,-8.4375 c -0.76785,-4.644563 -2.20579,-11.169563 -3.21875,-14.500003 -1.01296,-3.33044 -2.21875,-8.25 -2.21875,-8.25 0,0 9.8574,-0.77703 9.875,-0.8125 z"
       transform="matrix(1.0029428,0,0,0.99440169,197.71301,309.87451)"
       id="path3785-4-4-5-1"
       style="opacity:0.25;fill:#000000;fill-opacity:1;display:inline;filter:url(#filter3881-1)" />
    <path
       d="m 314.31806,293.0378 c -2.98983,0.0607 -6.38464,0.31274 -10.21748,0.46608 -65.90651,2.63785 -122.49179,13.18659 -162.60211,27.9676 -6.15518,2.26824 -11.12943,4.68153 -15.0128,7.27156 -4.3643,2.23286 -7.77616,6.01577 -9.49662,10.62767 -0.31668,0.82382 -0.50573,1.63694 -0.72086,2.42385 -0.32519,1.41099 -0.50147,2.87288 -0.50147,4.38158 0,9.98885 7.53104,18.22563 17.26942,19.45299 2.69311,0.5389 5.61961,0.83395 8.77575,1.08762 4.06437,0.32666 6.33107,0.62151 6.33107,0.62151 1.2348,1.3325 9.41348,11.11982 16.86198,17.02912 3.90049,3.09448 6.69473,6.02624 6.51913,6.86759 -0.16905,0.80988 -1.46525,2.16405 -2.88346,3.01428 -2.33573,1.40029 -3.10741,1.40393 -8.08623,-0.031 -3.58242,-1.03258 -7.0193,-2.98169 -9.87272,-5.59351 -2.40786,-2.20401 -4.93702,-4.00869 -5.61021,-4.00869 -0.71168,0 -1.72921,2.70413 -2.44467,6.46362 -1.04801,5.5069 -0.99571,6.79718 0.28208,8.70101 2.03765,3.03598 15.05298,9.45479 21.68863,10.68982 16.98103,3.1605 26.18344,-1.53801 26.95409,-13.85947 0.56142,-8.97621 -2.50015,-10.98175 -5.29679,-14.13915 -1.44422,-1.63053 -3.5204,-3.49104 -4.858,-4.31944 l 2.66406,0 c 1.76385,-0.0125 6.69534,-1.06911 7.92952,-1.52267 0,0 0.0393,0.10897 0.28208,4.44373 0.43513,7.76866 1.63461,18.81167 3.69835,21.69039 1.72768,2.40995 2.61921,2.7346 7.42804,2.7346 l 5.4535,0 -0.65818,-5.34491 c -0.82381,-6.94973 1.13291,-15.24481 4.41922,-18.73826 2.69295,-2.86267 8.53881,-5.31699 10.21748,-4.28835 1.31475,0.80564 5.04606,12.93062 5.04606,16.37655 0,1.58703 1.03048,3.65664 2.47601,5.00309 2.43869,2.27151 4.86917,2.39239 9.81004,0.4972 1.41991,-0.54465 1.75113,-0.12311 1.75515,2.17525 0.008,4.77409 3.69978,7.93453 13.53972,11.591 6.04697,2.24701 9.44621,3.02494 10.28017,2.39278 0.68468,-0.51901 6.09049,-7.0238 12.00398,-14.48098 10.04063,-12.6617 17.18931,-24.40771 17.45747,-28.6512 0.20692,-3.2744 1.75846,5.99389 1.81784,10.84519 0.0318,2.59788 0.4885,4.72341 1.00294,4.72341 0.51445,0 1.23333,0.94147 1.59844,2.08203 0.64277,2.00796 1.07742,2.05152 13.85315,1.42945 19.10336,-0.93016 18.71115,-0.79227 18.71115,-5.93533 0,-2.58603 -0.59417,-4.78236 -1.50442,-5.53136 -0.82742,-0.68086 -1.50441,-1.8569 -1.50441,-2.61031 0,-0.75342 -0.90265,-1.3673 -2.00589,-1.3673 -1.10323,0 -2.00588,0.40796 -2.00588,0.90118 0,1.46181 -11.56106,2.41591 -13.94718,1.14977 -1.1566,-0.61371 -2.09991,-1.54426 -2.09991,-2.05095 0,-0.50669 2.03096,-2.96796 4.51325,-5.50029 2.48228,-2.53233 4.51324,-5.20711 4.51324,-5.93533 0,-0.72823 -1.18504,-2.73791 -2.63273,-4.44373 -1.44768,-1.70583 -2.22482,-3.34017 -1.91186,-3.79116 0.45992,-0.66275 2.49049,-2.40492 5.98632,-1.8645 l 7.58475,1.14977 -0.53281,-6.02856 c -0.28782,-3.29654 -1.39932,-8.15031 -1.72381,-8.91854 0,0 4.52863,-2.53744 7.11463,-5.18953 -4.53469,0.87794 -6.11166,1.96182 -8.11757,2.39278 -3.76191,-0.0325 -10.79244,2.00064 -24.5721,2.92105 -7.1864,0.48003 -10.28016,1.05769 -10.28016,1.92666 0,0.68368 0.67698,1.51861 1.50441,1.83343 0.82743,0.3148 1.72381,3.51148 1.72381,3.51148 -8.80028,2.37379 -23.97661,4.78555 -23.97661,4.78555 0,0 -0.0386,-1.04844 -1.09697,-1.9888 -1.85147,-1.64497 -18.17834,-6.46361 -18.17834,-6.46361 0,0 -1.10697,2.77526 -1.66112,5.53136 -0.56796,2.82475 -0.94026,5.56243 -0.94026,5.56243 l -13.70282,1.31593 -3.25318,-8.89824 c -4.36091,-11.91493 -4.93977,-12.39346 -12.3174,-10.37907 -3.20735,0.87574 -9.57588,2.15842 -14.16656,2.85891 -8.00498,1.22145 -8.33952,1.37774 -7.89818,3.66685 0.52159,2.70528 -1.4602,15.64906 -2.38199,16.56301 0,0 -2.20551,-2.66252 -4.95203,-5.71781 -3.58009,-3.98257 -6.41246,-5.76247 -9.68466,-7.14726 -6.05382,-2.56198 -14.58288,-2.03232 -19.33799,0.3729 l -3.7297,1.89557 c 0.20877,-1.14226 0.34476,-2.30953 0.34476,-3.51148 0,-8.50169 -5.47268,-15.73489 -13.10094,-18.45858 36.26653,-13.36375 89.14835,-25.63417 147.0565,-26.53809 -1.885,1.9447 -1.49054,7.94394 0.75221,11.59099 1.09307,1.77749 2.41779,3.23181 2.94614,3.23181 0.52834,0 4.99599,-1.34244 9.93541,-2.98321 4.93941,-1.64076 10.04811,-2.91389 11.34579,-2.8589 1.51909,0.0643 0.92182,0.39913 -1.66113,0.9944 -5.79185,1.3348 -15.67833,4.82605 -18.3037,6.46361 -2.90616,1.81269 -3.01252,6.96937 -0.25074,12.3368 2.26867,4.40908 4.56556,5.93533 8.80709,5.93533 5.66033,0 21.05882,-6.38541 28.17643,-11.68422 5.93435,-4.41793 6.58621,-14.74234 5.2341,-19.11116 -1.34126,-4.33379 -4.19867,-7.80093 -10.06077,-10.47229 -3.05271,-1.39117 -6.92689,-1.68501 -11.90994,-1.58488 z m -178.77457,38.40877 c 8.20509,0 14.85609,6.59436 14.85609,14.72957 0,8.13521 -6.651,14.72958 -14.85609,14.72958 -8.20507,0 -14.85609,-6.59437 -14.85609,-14.72958 0,-8.13521 6.65102,-14.72957 14.85609,-14.72957 z m 157.77545,21.28641 c 0.56816,2.15972 0.56088,4.81914 0.9716,7.02296 l -3.35359,-1.3673 c -5.91755,-2.4012 -7.89817,-2.81091 -7.89817,-1.6159 0,3.13193 -7.61238,16.79176 -13.00692,23.33736 -3.36405,4.08185 -6.49793,7.64228 -6.95792,7.92414 -0.88139,0.54009 1.44715,-7.82945 4.07445,-21.75254 0.97859,-5.18586 1.62979,-7.86199 1.62979,-7.86199 3.8895,-1.0307 24.54076,-5.68673 24.54076,-5.68673 z m -1.69246,7.61339 c 0.0961,0.15592 0.14888,0.32813 0.18805,0.52827 0.11749,0.60042 0.0119,1.43869 -0.21939,2.73461 0.17357,-1.29429 0.31384,-2.13392 0.21939,-2.73461 -0.0315,-0.20023 -0.10092,-0.37278 -0.18805,-0.52827 z m -46.10474,0.73073 -0.84553,9.12006 c -0.43872,4.92229 -1.13629,12.08198 -1.53576,15.91043 l -0.72086,6.96081 -1.41039,-8.39027 c -0.77011,-4.61855 -2.21228,-11.10702 -3.22822,-14.41882 -1.01594,-3.3118 -2.86076,-8.1819 -2.86076,-8.1819 z"
       id="path2992-7"
       style="fill:#000000;fill-opacity:1;stroke:none;display:inline" />
    <path
       d="m 298.34414,382.15649 c 0,-2.48898 -0.63586,-7.75078 -1.41301,-11.69291 -0.77716,-3.94212 -1.62431,-9.47727 -1.94732,-12.29339 l -0.65863,-5.74223 c 4.35098,-1.13564 13.66707,-4.42607 13.66707,-4.42607 l -0.62163,-3.91662 c -5.46003,1.51893 -14.66167,3.70177 -13.8957,3.32204 -0.52746,-2.10062 -0.87562,-3.8084 -1.768,-4.30354 -1.09446,-0.60727 1.92481,-1.13421 9.27722,-1.61911 5.99485,-0.39538 13.11657,-1.13334 15.82604,-1.63994 2.70947,-0.5066 5.01623,-0.80706 5.12614,-0.6677 0.1099,0.13936 0.48748,2.78727 0.83906,5.88424 l 0.63924,5.63085 -2.81569,-1.05375 c -5.56493,-2.08264 -15.23419,1.88462 -15.23419,6.25052 0,1.65473 0.3145,1.75323 2.47766,0.77603 1.89451,-0.85585 2.83872,-0.82217 4.01177,0.14308 2.41092,1.98385 1.84138,3.79189 -2.47766,7.86552 -3.0262,2.85424 -4.01177,4.55451 -4.01177,6.92097 0,3.56334 2.6945,6.7491 6.51179,7.69902 3.17216,0.78938 13.3117,-0.39657 14.09191,-1.64823 1.30014,-2.08574 2.46398,-0.68761 2.46398,2.96 l 0,3.8848 -9.77869,0.60511 c -5.37828,0.33279 -12.14814,0.82595 -15.04414,1.09589 l -5.26545,0.49078 0,-4.52541 z"
       id="path3789-6-5-4"
       style="fill:#ffff00;display:inline" />
    <path
       d="m 251.70731,407.22099 -8.02354,-3.26577 0.0412,-5.41354 c 0.0439,-5.76565 2.08969,-32.76927 2.84541,-36.17012 l 0.24114,-1.35274 c 0,0 6.51369,-0.5536 9.98452,-1.32834 1.86367,-1.12611 1.3915,-5.06265 -0.39033,-5.71044 -5.0513,0.71276 -8.9213,1.06873 -8.9213,1.06873 0,0 0.21479,-1.37413 0.43958,-2.85761 0.22479,-1.48348 0.76645,-3.75355 1.12518,-4.8986 l 0.65223,-2.08191 7.52207,2.40955 c 4.13714,1.32526 7.86494,2.73632 8.28399,3.13567 0.41906,0.39935 -1.2674,8.26602 -3.7477,17.48147 -4.56862,16.97464 -6.3819,26.38241 -5.08503,26.38241 0.39195,0 2.68627,-1.60347 5.09849,-3.56328 6.78918,-5.51585 15.33648,-16.66346 19.23665,-25.08892 1.946,-4.2039 3.67845,-7.79994 3.84988,-7.99118 0.17145,-0.19123 1.9627,0.19254 3.98058,0.85282 3.52805,1.15445 3.49259,1.31629 3.02236,4.82252 -0.8594,6.40805 -7.02099,17.46764 -13.50164,25.85458 -12.25755,15.86313 -17.28293,21.04934 -17.96956,21.00217 -0.36337,-0.0119 -4.27125,-1.49131 -8.6842,-3.28747 z m -89.20393,-1.97316 c -7.42916,-1.50881 -13.34237,-4.57133 -16.60654,-6.53158 -1.37904,-0.82817 -2.62954,-1.5759 -2.77889,-1.66162 -0.63627,-0.0144 1.82007,-10.98103 2.22897,-11.44419 0.11989,-0.13582 2.17912,1.85644 4.57864,4.05281 4.09429,3.74763 11.57474,6.9453 16.24745,6.9453 3.09861,0 6.80328,-3.01743 6.80328,-5.54123 0,-1.68224 -1.88054,-3.82124 -6.76987,-7.7003 -3.72341,-2.95406 -9.02647,-7.78354 -11.78456,-10.73217 l -5.01472,-5.36115 7.34205,-0.29358 c 6.86831,-0.27464 7.47346,-0.12791 9.37911,2.27409 1.12038,1.41222 4.74174,3.76064 7.8575,5.33171 9.71335,4.8978 14.562,11.38609 13.3669,18.2932 -1.2365,7.14646 -3.74706,10.14195 -8.82549,12.15286 -3.21504,1.27307 -10.82239,1.27223 -16.02383,0.21585 z m 33.0353,-5.90467 c -2.09824,-5.89606 -3.15244,-31.15573 -1.50671,-33.72104 0,0 3.55257,-0.11626 7.13165,-0.45181 19.35973,-1.81501 19.35196,-1.70187 14.13213,-6.66018 -3.33233,-3.16539 -6.92928,-3.69413 -8.42143,-0.92978 -0.43745,0.81044 -0.66911,1.56968 -0.66911,1.56968 l -11.28237,0.89879 c 0,0 1.2454,-6.97995 1.37926,-10.8243 l 0.24335,-6.98973 9.02649,-1.30825 c 4.96457,-0.71954 10.76701,-1.90684 12.89431,-2.63843 4.07661,-1.40195 5.66013,-1.09603 5.66013,1.09354 0,0.72897 2.28526,7.3029 5.07834,14.60873 3.27641,8.57 5.94546,17.82922 7.52207,26.0948 1.34406,7.04632 2.44373,12.92232 2.44373,13.05778 0,0.25612 -8.48906,2.47119 -9.47061,2.47119 -0.30735,0 -0.55881,-1.26122 -0.55881,-2.80272 0,-4.59197 -4.96141,-18.96109 -7.55723,-21.88708 -0.95665,-1.07832 -12.00856,3.62386 -13.98153,5.94863 -2.67249,3.14903 -4.88674,13.7793 -3.89464,18.69758 0.45344,2.24788 0.22625,3.49486 -0.74819,4.10662 -2.08317,1.30783 -6.91392,1.0904 -7.42083,-0.33402 z M 174.4807,372.62867 c -7.54556,-1.79819 -9.91444,-5.85217 -3.41963,-5.85217 3.33258,0 4.85195,-2.296 3.21513,-4.85857 -0.87013,-1.36228 -2.77856,-1.55034 -12.61772,-1.24337 l -11.59252,0.36167 2.46938,-4.83648 c 4.28121,-8.38513 13.83289,-11.13164 24.76374,-7.73019 5.79871,1.80443 13.49155,9.97047 13.73019,13.98906 0.17715,2.98314 -0.44588,7.68239 -4.19637,9.02473 -2.47439,0.8856 -7.90043,2.20623 -12.3522,1.14532 z"
       id="path3787-5-7-0"
       style="fill:#ff0000;display:inline" />
  </g>
</svg>
